Coordinates
version=1
nRows=13
nColumns=36
inDegrees=yes

Units are S.I. units (second, meters, Newtons, ...)
If the header above contains a line with 'inDegrees', this indicates whether rotational values are in degrees (yes) or radians (no).

endheader
time	pelvis_tilt	pelvis_list	pelvis_rotation	pelvis_tx	pelvis_ty	pelvis_tz	hip_flexion_r	hip_adduction_r	hip_rotation_r	knee_angle_r	knee_angle_r_beta	ankle_angle_r	subtalar_angle_r	mtp_angle_r	hip_flexion_l	hip_adduction_l	hip_rotation_l	knee_angle_l	knee_angle_l_beta	ankle_angle_l	subtalar_angle_l	mtp_angle_l	lumbar_extension	lumbar_bending	lumbar_rotation	arm_flex_r	arm_add_r	arm_rot_r	elbow_flex_r	pro_sup_r	arm_flex_l	arm_add_l	arm_rot_l	elbow_flex_l	pro_sup_l
      5.43333330	     -4.56534567	     -6.36856120	      1.03835440	     -0.01871726	      0.85038019	     -0.01122268	     75.12167654	      1.04516868	     -0.34751082	     39.52640580	      0.68986592	     -7.16573452	     -9.67617117	     -7.49999987	     38.37665188	      1.58325714	     -0.79863826	     53.29811257	      0.93022755	     20.65979295	    -19.32636696	     -7.49999987	    -17.80858033	      5.57708303	      8.58183451	     70.55116695	      0.68490593	     71.71317111	    116.16213186	     86.03863882	     79.96284014	      5.04916321	     73.48231319	    108.46892974	     68.56192118
      5.45000000	     -4.89506970	     -6.42469624	      1.10180738	     -0.02052751	      0.83899563	     -0.01288283	     75.47728388	      0.59321834	     -0.57648945	     40.05119183	      0.69902517	     -6.66268632	     -9.35423180	     -7.49999987	     40.53077953	      1.54568688	     -1.28011233	     56.45164893	      0.98526714	     22.47922732	    -18.46892148	     -7.49999987	    -17.97647780	      5.58649125	      8.35522200	     71.22114254	      0.44584493	     72.00193537	    117.00225320	     86.33429150	     80.67531238	      4.99227012	     73.59942504	    108.34683271	     68.78337557
      5.46666670	     -5.12052439	     -6.25196674	      0.87326924	     -0.01996516	      0.82861221	     -0.01479672	     75.93816749	      0.32369747	     -0.55446594	     40.82122397	      0.71246476	     -6.11140843	     -9.22934914	     -7.49999987	     42.69812393	      1.75617204	     -1.72797715	     59.58506401	      1.03995555	     23.78645848	    -18.48096304	     -7.49999987	    -18.44276336	      5.25621625	      8.49638499	     72.18885170	      0.46654249	     71.94714450	    117.15586739	     86.40067223	     81.32000141	      5.16097671	     73.33396695	    108.21716250	     68.87424670
      5.48333330	     -5.34124680	     -6.10982747	      0.72305963	     -0.02229177	      0.81674787	     -0.01521209	     76.27599400	      0.12186279	     -0.26669065	     41.15635451	      0.71831389	     -5.58274692	     -9.29918581	     -7.49999987	     44.38762451	      2.15790178	     -1.86558152	     62.37039203	      1.08856870	     24.91618606	    -18.76150667	     -7.49999987	    -18.83028905	      4.94145393	      8.42336166	     72.90074861	      0.37937429	     72.00875168	    117.39339045	     86.53661792	     81.74654655	      5.12856985	     73.09819959	    108.10210538	     68.96127320
      5.50000000	     -5.56012667	     -6.07317731	      0.76091233	     -0.02153847	      0.80744556	     -0.01679825	     76.41440317	     -0.05985240	     -0.00695893	     41.38994371	      0.72239080	     -5.11700807	     -9.78922593	     -7.49999987	     45.29183612	      2.55484032	     -1.68054958	     63.87712535	      1.11486615	     25.56694920	    -19.33723236	     -7.49999987	    -19.09496734	      4.80970431	      8.03499994	     73.33674421	      0.49658904	     72.44027832	    117.75894295	     86.92304072	     81.82706252	      5.28038578	     73.01305582	    107.98651927	     69.12056365
      5.51666670	     -5.94834115	     -5.98975802	      0.58259229	     -0.02420627	      0.79493264	     -0.01667174	     77.08816686	     -0.18545961	      0.01378288	     41.63520278	      0.72667137	     -4.82522347	    -10.11429678	     -7.49999987	     46.93716382	      2.84529915	     -1.58995990	     66.39760719	      1.15885686	     26.02290073	    -20.03320834	     -7.49999987	    -19.46623411	      4.51220704	      8.13702240	     74.31038071	      0.69088634	     72.57251987	    117.68059652	     87.17079777	     82.27138911	      5.46805254	     72.86590134	    108.14290592	     69.25716844
      5.53333330	     -6.75484847	     -5.79586671	      0.17567693	     -0.02342983	      0.78230189	     -0.01661059	     78.13479956	     -0.19527668	     -0.10640803	     41.66254364	      0.72714856	     -4.98226486	    -10.73725666	     -7.49999987	     48.91046881	      3.08644960	     -1.68539840	     68.29063253	      1.19189639	     27.33903340	    -19.75912290	     -7.49999987	    -19.25707691	      4.12580970	      8.12042863	     75.14090352	      0.77203419	     72.85289511	    117.38321203	     87.87261038	     82.63187170	      5.36388415	     72.88618985	    108.34639471	     69.67210521
      5.55000000	     -7.42516123	     -5.61152475	     -0.22321352	     -0.02483992	      0.77113762	     -0.01584054	     78.88838273	     -0.27285963	     -0.49454164	     41.43930798	      0.72325236	     -4.94554848	    -10.39675698	     -7.49999987	     50.85618955	      2.80632855	     -2.30606157	     70.14395050	      1.22424289	     28.99175231	    -18.59551856	     -7.49999987	    -19.22474799	      3.63697173	      8.05360767	     75.74368266	      0.89291675	     72.92164587	    117.29127962	     88.29375652	     83.08244491	      5.19961475	     72.87292588	    108.47584460	     69.98803429
      5.56666670	     -7.74338611	     -5.48535238	     -0.78306785	     -0.02632109	      0.76317084	     -0.01559810	     78.85215484	     -0.17971523	     -1.02466829	     40.45245275	      0.70602849	     -5.14015007	    -10.25793948	     -7.49999987	     52.27904267	      2.16714943	     -3.06911826	     71.92937515	      1.25540443	     30.06929251	    -17.54403447	     -7.49999987	    -19.68271478	      3.07438228	      8.16501594	     76.67214958	      1.03703234	     72.95880391	    117.23971110	     87.03253175	     83.75776760	      5.06212019	     72.88637229	    108.70024578	     69.70162091
      5.58333330	     -8.27150660	     -5.46388141	     -1.20376958	     -0.02625742	      0.75046992	     -0.01626274	     79.15710000	     -0.37312590	     -1.72271636	     39.72154824	      0.69327180	     -4.94437582	     -9.78853523	     -7.49999987	     54.17315343	      1.55540161	     -3.74841254	     74.48198966	      1.29995595	     31.47107847	    -16.62041392	     -7.49999987	    -19.71857395	      2.74275044	      8.01325603	     77.38733779	      1.11931801	     72.88299489	    116.98472024	     87.52534353	     84.44210035	      4.98173198	     73.05919651	    108.57434861	     69.98843540
      5.60000000	     -8.57024819	     -5.16859914	     -1.49835825	     -0.03017756	      0.73954048	     -0.01537842	     79.37286619	     -0.57732914	     -1.86624574	     38.86842361	      0.67838197	     -5.22972778	     -9.53832744	     -7.49999987	     55.97010916	      1.23640674	     -4.67692916	     76.94277108	      1.34290469	     31.93564572	    -16.66824089	     -7.49999987	    -20.23328948	      1.98894399	      7.57708013	     78.20396267	      1.25033876	     72.65150354	    117.14074169	     87.89073594	     85.38244628	      4.81659938	     72.79876760	    108.49015702	     70.13200241
      5.61666670	     -9.00464512	     -5.14267415	     -1.63683084	     -0.03270688	      0.72913860	     -0.01567087	     79.82990632	     -0.89279181	     -2.15248424	     38.30239926	      0.66850298	     -5.57299186	     -9.57991203	     -7.49999987	     57.88897241	      0.86227815	     -5.28331656	     79.23449156	      1.38290276	     32.76107785	    -15.44503920	     -7.49999987	    -20.67894970	      1.80356911	      7.00753591	     79.19104966	      1.55123291	     72.57284428	    116.95676265	     90.59987425	     86.88397465	      4.78761689	     73.08585055	    108.21304968	     71.53818775
      5.63333330	     -9.42746470	     -4.99396188	     -1.53673581	     -0.03168726	      0.71854327	     -0.01506684	     80.26834452	     -1.32042242	     -1.94700546	     37.88778498	      0.66126659	     -5.69442733	     -9.20548295	     -7.49999987	     59.51319059	      0.78081153	     -5.82433867	     81.21343559	      1.41744185	     32.52094557	    -15.37298622	     -7.49999987	    -21.12471004	      1.49919840	      6.36114368	     80.10803841	      1.40480216	     72.21569908	    116.70992997	     90.70566138	     88.05046134	      4.91124132	     72.95924604	    108.13165328	     71.59017020
